<svg xmlns="http://www.w3.org/2000/svg" width="697" height="265.692" viewBox="0 0 697 265.692">
  <g id="clouds" transform="translate(-799.018 -113.63)">
    <path id="could2" d="M890.015,302.483H1129.18s7.761-21.678-8.61-32.592-34.99,0-34.99,0-9.835-16.387-23.291-19.332-30.533,7.554-30.533,7.554-9.618-30.1-42.8-31.44-43.282,28.72-43.282,28.72-25.67-11.748-45.074,6.582S890.015,302.483,890.015,302.483Z" transform="translate(-89 -113)" fill="#dbdbdb"/>
    <path id="cloud" d="M890.015,302.483H1129.18s7.761-21.678-8.61-32.592-34.99,0-34.99,0-9.835-16.387-23.291-19.332-30.533,7.554-30.533,7.554-9.618-30.1-42.8-31.44-43.282,28.72-43.282,28.72-25.67-11.748-45.074,6.582S890.015,302.483,890.015,302.483Z" transform="translate(365 -75)" fill="#dbdbdb"/>
    <path id="could3" d="M891.485,358.322h415.226s13.474-37.636-14.948-56.584-60.748,0-60.748,0-17.074-28.451-40.436-33.563-53.01,13.115-53.01,13.115-16.7-52.26-74.3-54.585-75.143,49.862-75.143,49.862-44.568-20.4-78.255,11.428S891.485,358.322,891.485,358.322Z" transform="translate(154 21)" fill="#dbdbdb"/>
  </g>
</svg>
