<svg xmlns="http://www.w3.org/2000/svg" width="525" height="303" viewBox="0 0 525 303">
  <g id="terminal" transform="translate(-76 -746)">
    <path id="Rectangle_2" data-name="Rectangle 2" d="M0,0H525a0,0,0,0,1,0,0V262a10,10,0,0,1-10,10H10A10,10,0,0,1,0,262V0A0,0,0,0,1,0,0Z" transform="translate(76 777)" fill="#fff"/>
    <path id="Rectangle_3" data-name="Rectangle 3" d="M10,0H515a10,10,0,0,1,10,10V31a0,0,0,0,1,0,0H0a0,0,0,0,1,0,0V10A10,10,0,0,1,10,0Z" transform="translate(76 746)" fill="#d9d9d9"/>
    <circle id="Ellipse_1" data-name="Ellipse 1" cx="9.5" cy="9.5" r="9.5" transform="translate(86 752)" fill="#ff5f57"/>
    <circle id="Ellipse_2" data-name="Ellipse 2" cx="9.5" cy="9.5" r="9.5" transform="translate(115 752)" fill="#ffbe2e"/>
    <circle id="Ellipse_3" data-name="Ellipse 3" cx="9.5" cy="9.5" r="9.5" transform="translate(144 752)" fill="#28ca41"/>
  </g>
</svg>
