<svg xmlns="http://www.w3.org/2000/svg" width="207" height="207" viewBox="0 0 207 207">
  <g id="moon" transform="translate(-1480 -326)">
    <circle id="Ellipse_4" data-name="Ellipse 4" cx="103.5" cy="103.5" r="103.5" transform="translate(1480 326)" fill="#efefef"/>
    <g id="Group_7" data-name="Group 7" transform="translate(515.65 -811.518) rotate(41)">
      <ellipse id="Ellipse_8" data-name="Ellipse 8" cx="23" cy="22" rx="23" ry="22" transform="translate(1601.444 197.46) rotate(-99)" fill="#c6c6c6"/>
      <path id="Path_2" data-name="Path 2" d="M23,0C35.7,0,43.22,11.713,43.22,22.07S35.7,44,23,44,0,34.15,0,22,10.3,0,23,0Z" transform="translate(1601.444 197.46) rotate(-99)" fill="#dbdbdb"/>
    </g>
    <g id="Group_8" data-name="Group 8" transform="matrix(0.891, -0.454, 0.454, 0.891, 72.754, 974.942)">
      <ellipse id="Ellipse_8-2" data-name="Ellipse 8" cx="14.139" cy="13.524" rx="14.139" ry="13.524" transform="translate(1598.671 177.305) rotate(-99)" fill="#c6c6c6"/>
      <path id="Path_2-2" data-name="Path 2" d="M14.139,0c7.809,0,12.43,7.2,12.43,13.568s-4.622,13.481-12.43,13.481S0,20.994,0,13.524,6.33,0,14.139,0Z" transform="translate(1598.671 177.305) rotate(-99)" fill="#dbdbdb"/>
    </g>
    <g id="Group_9" data-name="Group 9" transform="matrix(0.891, -0.454, 0.454, 0.891, 46.408, 951.301)">
      <path id="Path_4" data-name="Path 4" d="M10.087.262c4.709-.617,8.048,5.479,7.458,13.616s-4.886,15.233-9.6,15.85S-.1,24.25.491,16.113,5.378.879,10.087.262Z" transform="translate(1597.886 166.124) rotate(-99)" fill="#c6c6c6"/>
      <path id="Path_2-3" data-name="Path 2" d="M9.742.25c4.473-.654,6.517,6.8,5.983,13.728S11.948,29.042,7.475,29.7-.116,24.289.51,16.158,5.269.9,9.742.25Z" transform="translate(1597.844 166.215) rotate(-99)" fill="#dbdbdb"/>
    </g>
    <g id="Group_10" data-name="Group 10" transform="translate(1407.975 2054.772) rotate(-92)">
      <path id="Path_4-2" data-name="Path 4" d="M11.852-.264c6.168-.6,10.7,6.555,10.132,15.976S15.948,33.256,9.78,33.854-.924,27.3-.352,17.878,5.684.334,11.852-.264Z" transform="translate(1598.939 171.604) rotate(-99)" fill="#c6c6c6"/>
      <path id="Path_2-4" data-name="Path 2" d="M11.565-.261c5.979-.63,8.937,8.087,8.423,16.125S15.361,33.256,9.382,33.886-.956,27.383-.353,17.954,5.585.369,11.565-.261Z" transform="translate(1598.852 171.6) rotate(-99)" fill="#dbdbdb"/>
    </g>
    <g id="Group_11" data-name="Group 11" transform="translate(2593.714 -860.64) rotate(120)">
      <path id="Path_3" data-name="Path 3" d="M13.3-1.536c7.346-.848,12.643,8.209,11.831,20.231S17.707,41.15,10.362,42-2.281,33.789-1.469,21.767,5.955-.688,13.3-1.536Z" transform="translate(1601.444 174.844) rotate(-99)" fill="#c6c6c6"/>
      <path id="Path_2-5" data-name="Path 2" d="M12.763-1.621c7.049-.9,10.4,10.157,9.665,20.4S16.711,40.992,9.662,41.887-2.407,33.769-1.551,21.754,5.714-.726,12.763-1.621Z" transform="translate(1601.444 174.844) rotate(-99)" fill="#dbdbdb"/>
    </g>
    <g id="Group_12" data-name="Group 12" transform="matrix(-0.974, 0.225, -0.225, -0.974, 3218.283, 291.316)">
      <path id="Path_3-2" data-name="Path 3" d="M11.571.02C17.541-.405,22.05,5.91,21.643,14.126S16.066,29.349,10.1,29.774-.382,23.884.026,15.668,5.6.446,11.571.02Z" transform="translate(1598.96 170.134) rotate(-99)" fill="#c6c6c6"/>
      <path id="Path_2-6" data-name="Path 2" d="M11.2.02c5.726-.462,8.689,7.166,8.313,14.152S15.326,29.237,9.6,29.7-.41,23.891.031,15.7,5.473.482,11.2.02Z" transform="translate(1598.947 170.212) rotate(-99)" fill="#dbdbdb"/>
    </g>
  </g>
</svg>
