<svg xmlns="http://www.w3.org/2000/svg" width="1627.387" height="740.303" viewBox="0 0 1627.387 740.303">
  <g id="stars" transform="translate(-120 47.097)">
    <g id="Group_14" data-name="Group 14" transform="matrix(-0.951, -0.309, 0.309, -0.951, 1789.513, 760.37)">
      <circle id="Ellipse_9" data-name="Ellipse 9" cx="6" cy="6" r="6" transform="translate(140 53)" fill="#fff"/>
      <circle id="Ellipse_10" data-name="Ellipse 10" cx="4" cy="4" r="4" transform="translate(364 161)" fill="#fff"/>
      <circle id="Ellipse_11" data-name="Ellipse 11" cx="7.5" cy="7.5" r="7.5" transform="translate(120 218)" fill="#fff"/>
      <circle id="Ellipse_12" data-name="Ellipse 12" cx="10" cy="10" r="10" transform="translate(204 114)" fill="#fff"/>
      <circle id="Ellipse_13" data-name="Ellipse 13" cx="5" cy="5" r="5" transform="translate(571 94)" fill="#fff"/>
      <circle id="Ellipse_14" data-name="Ellipse 14" cx="10" cy="10" r="10" transform="translate(708 169)" fill="#fff"/>
      <circle id="Ellipse_15" data-name="Ellipse 15" cx="7.5" cy="7.5" r="7.5" transform="translate(864 340)" fill="#fff"/>
    </g>
    <g id="Group_13" data-name="Group 13">
      <circle id="Ellipse_9-2" data-name="Ellipse 9" cx="6" cy="6" r="6" transform="translate(140 53)" fill="#fff"/>
      <circle id="Ellipse_10-2" data-name="Ellipse 10" cx="4" cy="4" r="4" transform="translate(364 161)" fill="#fff"/>
      <circle id="Ellipse_11-2" data-name="Ellipse 11" cx="7.5" cy="7.5" r="7.5" transform="translate(120 218)" fill="#fff"/>
      <circle id="Ellipse_12-2" data-name="Ellipse 12" cx="10" cy="10" r="10" transform="translate(204 114)" fill="#fff"/>
      <circle id="Ellipse_13-2" data-name="Ellipse 13" cx="5" cy="5" r="5" transform="translate(571 94)" fill="#fff"/>
      <circle id="Ellipse_14-2" data-name="Ellipse 14" cx="10" cy="10" r="10" transform="translate(708 169)" fill="#fff"/>
      <circle id="Ellipse_15-2" data-name="Ellipse 15" cx="7.5" cy="7.5" r="7.5" transform="translate(864 340)" fill="#fff"/>
    </g>
    <g id="Group_15" data-name="Group 15" transform="translate(839.147 783.916) rotate(-83)" opacity="0.997">
      <circle id="Ellipse_9-3" data-name="Ellipse 9" cx="6" cy="6" r="6" transform="translate(140 53)" fill="#fff"/>
      <circle id="Ellipse_10-3" data-name="Ellipse 10" cx="4" cy="4" r="4" transform="translate(364 161)" fill="#fff"/>
      <circle id="Ellipse_11-3" data-name="Ellipse 11" cx="7.5" cy="7.5" r="7.5" transform="translate(120 218)" fill="#fff"/>
      <circle id="Ellipse_12-3" data-name="Ellipse 12" cx="10" cy="10" r="10" transform="translate(204 114)" fill="#fff"/>
      <circle id="Ellipse_13-3" data-name="Ellipse 13" cx="5" cy="5" r="5" transform="translate(571 94)" fill="#fff"/>
      <circle id="Ellipse_14-3" data-name="Ellipse 14" cx="10" cy="10" r="10" transform="translate(708 169)" fill="#fff"/>
      <circle id="Ellipse_15-3" data-name="Ellipse 15" cx="7.5" cy="7.5" r="7.5" transform="translate(864 340)" fill="#fff"/>
    </g>
  </g>
</svg>
